# xmcd
#
# Track frame offsets: 
#        150
#        15153
#        29832
#        43429
#        57089
#        73210
#        88474
#        102385
#
# Disc length: 1556 seconds
#
# Revision: 0
# Processed by: cddbd v1.5.2PL0 Copyright (c) Steve Scherf et al.
# Submitted via: ExactAudioCopy v0.95b4
#
DISCID=73061208
DTITLE=Lee Greenwood - Greatest Hits
DYEAR=2004
DGENRE=Country
TTITLE0=Dixie Road
TTITLE1=Mornin' Ride
TTITLE2=Hearts Aren't Made To Break
TTITLE3=Don't Underestimate My Love For You
TTITLE4=Somebody's Gonna Love You
TTITLE5=I don't Mind The Thorns
TTITLE6=I.O.U.
TTITLE7=God Bless The U.S.A.
EXTD=
EXTT0=
EXTT1=
EXTT2=
EXTT3=
EXTT4=
EXTT5=
EXTT6=
EXTT7=
PLAYORDER=
